<svg xmlns="http://www.w3.org/2000/svg" xmlns:xlink="http://www.w3.org/1999/xlink" version="1.1" x="0px" y="0px" viewBox="0 0 100 125" enable-background="new 0 0 100 100" xml:space="preserve"><g display="none"><path display="inline" fill="#000000" d="M92.72,25.941L37.175,5l-9.254,39.549c-2.253-1.162-4.869-1.83-7.663-1.83   C11.832,42.719,5,48.771,5,56.236c0,7.467,6.832,13.52,15.258,13.52c8.427,0,15.258-6.053,15.258-13.52   c0-1.551-0.3-3.041-0.842-4.428l5.952-25.438l39.854,14.678l-7.389,29.636c-2.403-1.402-5.281-2.222-8.375-2.222   c-8.425,0-15.257,6.054-15.257,13.519c0,7.467,6.832,13.52,15.257,13.52c8.428,0,15.258-6.053,15.258-13.52   c0-1.099-0.151-2.164-0.43-3.187L92.72,25.941z M41.387,23.122l1.843-7.87l39.927,15.053l-1.872,7.512L41.387,23.122z"/></g><g><polygon points="7.5,52.5 5,52.5 5,57.5 5,60 7.5,60 7.5,57.5  "/><polygon points="10,60 7.5,60 7.5,62.5 7.5,65 10,65 10,62.5  "/><rect x="10" y="65" width="2.5" height="2.5"/><polygon points="20,67.5 17.5,67.5 15,67.5 12.5,67.5 12.5,70 15,70 17.5,70 20,70 22.5,70 25,70 25,67.5 22.5,67.5  "/><polygon points="25,65 25,67.5 27.5,67.5 30,67.5 30,65 27.5,65  "/><rect x="30" y="62.5" width="2.5" height="2.5"/><polygon points="32.5,60 32.5,62.5 35,62.5 35,60 35,57.5 32.5,57.5  "/><polygon points="35,57.5 37.5,57.5 37.5,55 37.5,52.5 35,52.5 35,55  "/><polygon points="32.5,50 32.5,52.5 35,52.5 35,50 35,47.5 32.5,47.5  "/><polygon points="35,42.5 35,45 35,47.5 37.5,47.5 37.5,45 37.5,42.5 37.5,40 35,40  "/><polygon points="37.5,30 37.5,32.5 37.5,35 37.5,37.5 37.5,40 40,40 40,37.5 40,35 40,32.5 40,30 40,27.5 37.5,27.5  "/><polygon points="45,25 42.5,25 42.5,22.5 42.5,20 42.5,17.5 40,17.5 40,20 40,22.5 40,25 40,27.5 42.5,27.5 45,27.5 47.5,27.5    47.5,25  "/><polygon points="50,27.5 47.5,27.5 47.5,30 50,30 52.5,30 52.5,27.5  "/><rect x="52.5" y="30" width="5" height="2.5"/><rect x="57.5" y="32.5" width="10" height="2.5"/><polygon points="75,37.5 75,35 67.5,35 67.5,37.5 72.5,37.5 72.5,40 80,40 80,37.5  "/><rect x="7.5" y="50" width="2.5" height="2.5"/><rect x="10" y="47.5" width="2.5" height="2.5"/><rect x="12.5" y="45" width="2.5" height="2.5"/><polygon points="20,45 22.5,45 25,45 25,42.5 22.5,42.5 20,42.5 17.5,42.5 15,42.5 15,45 17.5,45  "/><rect x="25" y="45" width="2.5" height="2.5"/><polygon points="30,42.5 30,40 30,37.5 27.5,37.5 27.5,40 27.5,42.5 27.5,45 30,45  "/><polygon points="32.5,35 32.5,32.5 32.5,30 30,30 30,32.5 30,35 30,37.5 32.5,37.5  "/><polygon points="35,27.5 35,25 35,22.5 35,20 32.5,20 32.5,22.5 32.5,25 32.5,27.5 32.5,30 35,30  "/><polygon points="37.5,12.5 37.5,10 35,10 35,12.5 35,20 37.5,20  "/><polygon points="42.5,10 47.5,10 47.5,7.5 42.5,7.5 40,7.5 40,5 37.5,5 37.5,10 40,10  "/><rect x="47.5" y="10" width="5" height="2.5"/><rect x="52.5" y="12.5" width="7.5" height="2.5"/><rect x="60" y="15" width="5" height="2.5"/><rect x="65" y="17.5" width="7.5" height="2.5"/><rect x="72.5" y="20" width="5" height="2.5"/><rect x="77.5" y="22.5" width="7.5" height="2.5"/><polygon points="85,27.5 90,27.5 90,30 90,32.5 92.5,32.5 92.5,30 92.5,27.5 92.5,25 85,25  "/><polygon points="87.5,37.5 87.5,40 90,40 90,37.5 90,32.5 87.5,32.5  "/><polygon points="85,45 85,47.5 85,50 87.5,50 87.5,47.5 87.5,45 87.5,40 85,40  "/><rect x="82.5" y="50" width="2.5" height="10"/><rect x="80" y="60" width="2.5" height="12.5"/><polygon points="77.5,75 77.5,77.5 80,77.5 80,75 80,72.5 77.5,72.5  "/><polygon points="80,82.5 82.5,82.5 82.5,80 82.5,77.5 80,77.5 80,80  "/><rect x="77.5" y="82.5" width="2.5" height="2.5"/><polygon points="75,87.5 75,90 77.5,90 77.5,87.5 77.5,85 75,85  "/><rect x="72.5" y="90" width="2.5" height="2.5"/><polygon points="67.5,92.5 60,92.5 60,95 67.5,95 70,95 72.5,95 72.5,92.5 70,92.5  "/><polygon points="57.5,90 55,90 55,92.5 57.5,92.5 60,92.5 60,90  "/><polygon points="55,85 52.5,85 52.5,87.5 52.5,90 55,90 55,87.5  "/><polygon points="52.5,80 52.5,77.5 50,77.5 50,80 50,82.5 50,85 52.5,85 52.5,82.5  "/><rect x="52.5" y="75" width="2.5" height="2.5"/><rect x="55" y="72.5" width="2.5" height="2.5"/><rect x="57.5" y="70" width="2.5" height="2.5"/><rect x="60" y="67.5" width="7.5" height="2.5"/><rect x="67.5" y="70" width="5" height="2.5"/><polygon points="75,67.5 75,65 72.5,65 72.5,67.5 72.5,70 75,70  "/><rect x="80" y="40" width="2.5" height="5"/><polygon points="77.5,60 77.5,55 75,55 75,60 75,65 77.5,65  "/><polygon points="80,52.5 80,47.5 80,45 77.5,45 77.5,47.5 77.5,52.5 77.5,55 80,55  "/><rect x="42.5" y="15" width="5" height="2.5"/><rect x="47.5" y="17.5" width="7.5" height="2.5"/><rect x="55" y="20" width="7.5" height="2.5"/><rect x="62.5" y="22.5" width="5" height="2.5"/><rect x="67.5" y="25" width="7.5" height="2.5"/><polygon points="80,30 80,32.5 82.5,32.5 82.5,35 85,35 85,32.5 85,30 82.5,30 82.5,27.5 75,27.5 75,30  "/><rect x="80" y="35" width="2.5" height="2.5"/></g><text x="0" y="115" fill="#000000" font-size="5px" font-weight="bold" font-family="'Helvetica Neue', Helvetica, Arial-Unicode, Arial, Sans-serif">Created by Louis Dawson</text><text x="0" y="120" fill="#000000" font-size="5px" font-weight="bold" font-family="'Helvetica Neue', Helvetica, Arial-Unicode, Arial, Sans-serif">from the Noun Project</text></svg>