<?xml version="1.0" encoding="UTF-8" standalone="no"?>
<svg
   xmlns:dc="http://purl.org/dc/elements/1.1/"
   xmlns:cc="http://creativecommons.org/ns#"
   xmlns:rdf="http://www.w3.org/1999/02/22-rdf-syntax-ns#"
   xmlns:svg="http://www.w3.org/2000/svg"
   xmlns="http://www.w3.org/2000/svg"
   xmlns:sodipodi="http://sodipodi.sourceforge.net/DTD/sodipodi-0.dtd"
   xmlns:inkscape="http://www.inkscape.org/namespaces/inkscape"
   version="1.1"
   x="0px"
   y="0px"
   viewBox="0 0 90 90"
   enable-background="new 0 0 100 100"
   xml:space="preserve"
   id="svg24"
   sodipodi:docname="random.svg"
   width="90"
   height="90"
   inkscape:version="0.92.4 5da689c313, 2019-01-14"><metadata
     id="metadata30"><rdf:RDF><cc:Work
         rdf:about=""><dc:format>image/svg+xml</dc:format><dc:type
           rdf:resource="http://purl.org/dc/dcmitype/StillImage" /></cc:Work></rdf:RDF></metadata><defs
     id="defs28" /><sodipodi:namedview
     pagecolor="#ffffff"
     bordercolor="#666666"
     borderopacity="1"
     objecttolerance="10"
     gridtolerance="10"
     guidetolerance="10"
     inkscape:pageopacity="0"
     inkscape:pageshadow="2"
     inkscape:window-width="1366"
     inkscape:window-height="747"
     id="namedview26"
     showgrid="false"
     inkscape:zoom="1.888"
     inkscape:cx="45"
     inkscape:cy="32.5"
     inkscape:window-x="0"
     inkscape:window-y="21"
     inkscape:window-maximized="0"
     inkscape:current-layer="svg24" /><g
     id="g18"
     transform="translate(-5,-5)"><rect
       x="35"
       y="5"
       width="10"
       height="10"
       id="rect2" /><rect
       x="55"
       y="25"
       width="10"
       height="10"
       id="rect4" /><rect
       x="55"
       y="5"
       width="10"
       height="10"
       id="rect6" /><path
       d="M 65,55 V 45 H 55 V 55 H 45 V 45 H 55 V 35 H 45 35 V 25 15 H 25 V 5 H 15 V 15 H 5 V 25 35 45 55 65 75 85 95 H 15 25 35 45 55 65 75 85 95 V 85 75 65 H 85 V 75 85 H 75 V 75 65 H 85 V 55 H 95 V 45 H 85 75 V 55 Z M 15,25 H 25 V 35 H 15 Z M 65,75 H 55 V 65 h 10 z"
       id="path8"
       inkscape:connector-curvature="0" /><rect
       x="65"
       y="35"
       width="10"
       height="10"
       id="rect10" /><polygon
       points="85,25 85,15 75,15 65,15 65,25 75,25 "
       id="polygon12" /><rect
       x="85"
       y="25"
       width="10"
       height="10"
       id="rect14" /><rect
       x="85"
       y="5"
       width="10"
       height="10"
       id="rect16" /></g></svg>