<?xml version="1.0" encoding="UTF-8" standalone="no"?>
<!-- Created with Inkscape (http://www.inkscape.org/) -->

<svg
   xmlns:dc="http://purl.org/dc/elements/1.1/"
   xmlns:cc="http://creativecommons.org/ns#"
   xmlns:rdf="http://www.w3.org/1999/02/22-rdf-syntax-ns#"
   xmlns:svg="http://www.w3.org/2000/svg"
   xmlns="http://www.w3.org/2000/svg"
   xmlns:sodipodi="http://sodipodi.sourceforge.net/DTD/sodipodi-0.dtd"
   xmlns:inkscape="http://www.inkscape.org/namespaces/inkscape"
   width="16.933332mm"
   height="16.933332mm"
   viewBox="0 0 16.933332 16.933332"
   version="1.1"
   id="svg3849"
   inkscape:version="0.92.4 5da689c313, 2019-01-14"
   sodipodi:docname="settings.svg">
  <defs
     id="defs3843" />
  <sodipodi:namedview
     id="base"
     pagecolor="#ffffff"
     bordercolor="#666666"
     borderopacity="1.0"
     inkscape:pageopacity="0.0"
     inkscape:pageshadow="2"
     inkscape:zoom="3.959798"
     inkscape:cx="35.222009"
     inkscape:cy="39.850605"
     inkscape:document-units="mm"
     inkscape:current-layer="layer1"
     showgrid="false"
     inkscape:window-width="1366"
     inkscape:window-height="747"
     inkscape:window-x="0"
     inkscape:window-y="21"
     inkscape:window-maximized="0" />
  <metadata
     id="metadata3846">
    <rdf:RDF>
      <cc:Work
         rdf:about="">
        <dc:format>image/svg+xml</dc:format>
        <dc:type
           rdf:resource="http://purl.org/dc/dcmitype/StillImage" />
        <dc:title></dc:title>
      </cc:Work>
    </rdf:RDF>
  </metadata>
  <g
     inkscape:label="Layer 1"
     inkscape:groupmode="layer"
     id="layer1"
     transform="translate(-81.491667,-158.50952)">
    <g
       transform="matrix(0.26458333,0,0,0.26458333,76.729167,153.74702)"
       style="fill:none;fill-rule:evenodd;stroke:none;stroke-width:1"
       id="g80">
      <g
         style="fill:#000000"
         transform="translate(18,18)"
         id="g78">
        <rect
           x="28"
           y="20"
           width="8"
           height="4"
           id="rect6" />
        <rect
           x="28"
           y="40"
           width="8"
           height="4"
           id="rect8" />
        <rect
           x="20"
           y="28"
           width="4"
           height="8"
           id="rect10" />
        <rect
           x="24"
           y="24"
           width="4"
           height="4"
           id="rect12" />
        <rect
           x="36"
           y="24"
           width="4"
           height="4"
           id="rect14" />
        <rect
           x="24"
           y="36"
           width="4"
           height="4"
           id="rect16" />
        <rect
           x="36"
           y="36"
           width="4"
           height="4"
           id="rect18" />
        <rect
           x="40"
           y="28"
           width="4"
           height="8"
           id="rect20" />
        <rect
           x="24"
           y="4"
           width="4"
           height="8"
           id="rect22" />
        <rect
           x="36"
           y="4"
           width="4"
           height="8"
           id="rect24" />
        <rect
           x="28"
           y="0"
           width="8"
           height="4"
           id="rect26" />
        <rect
           x="12"
           y="8"
           width="8"
           height="4"
           id="rect28" />
        <rect
           x="40"
           y="12"
           width="4"
           height="4"
           id="rect30" />
        <rect
           x="52"
           y="12"
           width="4"
           height="8"
           id="rect32" />
        <rect
           x="8"
           y="12"
           width="4"
           height="8"
           id="rect34" />
        <rect
           x="44"
           y="8"
           width="8"
           height="4"
           id="rect36" />
        <rect
           x="20"
           y="12"
           width="4"
           height="4"
           id="rect38" />
        <rect
           x="0"
           y="28"
           width="4"
           height="8"
           id="rect40" />
        <rect
           x="4"
           y="24"
           width="8"
           height="4"
           id="rect42" />
        <rect
           x="4"
           y="36"
           width="8"
           height="4"
           id="rect44" />
        <rect
           transform="matrix(-1,0,0,1,124,0)"
           x="60"
           y="28"
           width="4"
           height="8"
           id="rect46" />
        <rect
           transform="matrix(-1,0,0,1,112,0)"
           x="52"
           y="24"
           width="8"
           height="4"
           id="rect48" />
        <rect
           transform="matrix(-1,0,0,1,112,0)"
           x="52"
           y="36"
           width="8"
           height="4"
           id="rect50" />
        <rect
           x="12"
           y="20"
           width="4"
           height="4"
           id="rect52" />
        <rect
           x="48"
           y="20"
           width="4"
           height="4"
           id="rect54" />
        <rect
           transform="matrix(1,0,0,-1,0,112)"
           x="24"
           y="52"
           width="4"
           height="8"
           id="rect56" />
        <rect
           transform="matrix(1,0,0,-1,0,112)"
           x="36"
           y="52"
           width="4"
           height="8"
           id="rect58" />
        <rect
           transform="matrix(1,0,0,-1,0,124)"
           x="28"
           y="60"
           width="8"
           height="4"
           id="rect60" />
        <rect
           transform="matrix(1,0,0,-1,0,108)"
           x="12"
           y="52"
           width="8"
           height="4"
           id="rect62" />
        <rect
           transform="matrix(1,0,0,-1,0,100)"
           x="40"
           y="48"
           width="4"
           height="4"
           id="rect64" />
        <rect
           transform="matrix(1,0,0,-1,0,96)"
           x="52"
           y="44"
           width="4"
           height="8"
           id="rect66" />
        <rect
           transform="matrix(1,0,0,-1,0,96)"
           x="8"
           y="44"
           width="4"
           height="8"
           id="rect68" />
        <rect
           transform="matrix(1,0,0,-1,0,108)"
           x="44"
           y="52"
           width="8"
           height="4"
           id="rect70" />
        <rect
           transform="matrix(1,0,0,-1,0,100)"
           x="20"
           y="48"
           width="4"
           height="4"
           id="rect72" />
        <rect
           transform="matrix(1,0,0,-1,0,84)"
           x="12"
           y="40"
           width="4"
           height="4"
           id="rect74" />
        <rect
           transform="matrix(1,0,0,-1,0,84)"
           x="48"
           y="40"
           width="4"
           height="4"
           id="rect76" />
      </g>
    </g>
  </g>
</svg>
