<?xml version="1.0" encoding="UTF-8" standalone="no"?>
<svg
   xmlns:dc="http://purl.org/dc/elements/1.1/"
   xmlns:cc="http://creativecommons.org/ns#"
   xmlns:rdf="http://www.w3.org/1999/02/22-rdf-syntax-ns#"
   xmlns:svg="http://www.w3.org/2000/svg"
   xmlns="http://www.w3.org/2000/svg"
   xmlns:sodipodi="http://sodipodi.sourceforge.net/DTD/sodipodi-0.dtd"
   xmlns:inkscape="http://www.inkscape.org/namespaces/inkscape"
   data-name="Layer 1"
   viewBox="0 0 40 76"
   x="0px"
   y="0px"
   version="1.1"
   id="svg10"
   sodipodi:docname="play.svg"
   width="40"
   height="76"
   inkscape:version="0.92.4 5da689c313, 2019-01-14">
  <metadata
     id="metadata16">
    <rdf:RDF>
      <cc:Work
         rdf:about="">
        <dc:format>image/svg+xml</dc:format>
        <dc:type
           rdf:resource="http://purl.org/dc/dcmitype/StillImage" />
      </cc:Work>
    </rdf:RDF>
  </metadata>
  <defs
     id="defs14" />
  <sodipodi:namedview
     pagecolor="#ffffff"
     bordercolor="#666666"
     borderopacity="1"
     objecttolerance="10"
     gridtolerance="10"
     guidetolerance="10"
     inkscape:pageopacity="0"
     inkscape:pageshadow="2"
     inkscape:window-width="1366"
     inkscape:window-height="747"
     id="namedview12"
     showgrid="false"
     inkscape:zoom="1.888"
     inkscape:cx="16"
     inkscape:cy="25.5"
     inkscape:window-x="0"
     inkscape:window-y="21"
     inkscape:window-maximized="0"
     inkscape:current-layer="svg10" />
  <title
     id="title2">pixel art</title>
  <polygon
     points="66,44 66,40 62,40 62,36 58,36 58,32 54,32 54,28 50,28 50,24 46,24 46,20 42,20 42,16 38,16 38,12 34,12 34,16 34,20 34,24 34,28 34,32 34,36 34,40 34,44 34,48 34,52 34,56 34,60 34,64 34,68 34,72 34,76 34,80 34,84 34,88 38,88 38,84 42,84 42,80 46,80 46,76 50,76 50,72 54,72 54,68 58,68 58,64 62,64 62,60 66,60 66,56 70,56 70,52 74,52 74,48 70,48 70,44 "
     id="polygon4"
     transform="translate(-34,-12)" />
</svg>
