<?xml version="1.0" encoding="UTF-8" standalone="no"?>
<svg
   xmlns:dc="http://purl.org/dc/elements/1.1/"
   xmlns:cc="http://creativecommons.org/ns#"
   xmlns:rdf="http://www.w3.org/1999/02/22-rdf-syntax-ns#"
   xmlns:svg="http://www.w3.org/2000/svg"
   xmlns="http://www.w3.org/2000/svg"
   xmlns:sodipodi="http://sodipodi.sourceforge.net/DTD/sodipodi-0.dtd"
   xmlns:inkscape="http://www.inkscape.org/namespaces/inkscape"
   version="1.1"
   x="0px"
   y="0px"
   viewBox="206 206 71.210007 71.209999"
   enable-background="new 206 206 100 100"
   xml:space="preserve"
   id="svg32"
   sodipodi:docname="noun_setting_1537423.svg"
   width="71.210007"
   height="71.209999"
   inkscape:version="0.92.4 5da689c313, 2019-01-14"><metadata
     id="metadata38"><rdf:RDF><cc:Work
         rdf:about=""><dc:format>image/svg+xml</dc:format><dc:type
           rdf:resource="http://purl.org/dc/dcmitype/StillImage" /></cc:Work></rdf:RDF></metadata><defs
     id="defs36" /><sodipodi:namedview
     pagecolor="#ffffff"
     bordercolor="#666666"
     borderopacity="1"
     objecttolerance="10"
     gridtolerance="10"
     guidetolerance="10"
     inkscape:pageopacity="0"
     inkscape:pageshadow="2"
     inkscape:window-width="679"
     inkscape:window-height="564"
     id="namedview34"
     showgrid="false"
     inkscape:zoom="1.888"
     inkscape:cx="35.604996"
     inkscape:cy="23.105"
     inkscape:window-x="683"
     inkscape:window-y="21"
     inkscape:window-maximized="0"
     inkscape:current-layer="svg32" /><g
     id="g26"
     transform="translate(-14.395004,-14.395)"><polygon
       points="233.342,233.343 233.342,226.869 233.342,220.395 226.868,220.395 226.868,226.869 226.868,233.343 226.868,239.816 226.868,246.29 226.868,252.763 233.342,252.763 233.342,246.29 233.342,239.816 "
       id="polygon2" /><rect
       x="220.395"
       y="252.763"
       width="6.474"
       height="6.474"
       id="rect4" /><polygon
       points="226.868,278.658 226.868,285.132 226.868,291.605 233.342,291.605 233.342,285.132 233.342,278.658 233.342,272.184 233.342,265.711 233.342,259.237 226.868,259.237 226.868,265.711 226.868,272.184 "
       id="polygon6" /><rect
       x="233.342"
       y="252.763"
       width="6.474"
       height="6.474"
       id="rect8" /><polygon
       points="252.763,220.395 252.763,226.869 252.763,233.343 259.237,233.343 259.237,226.869 259.237,220.395 "
       id="polygon10" /><rect
       x="246.289"
       y="233.343"
       width="6.474"
       height="6.473"
       id="rect12" /><polygon
       points="252.763,259.237 252.763,265.711 252.763,272.184 252.763,278.658 252.763,285.132 252.763,291.605 259.237,291.605 259.237,285.132 259.237,278.658 259.237,272.184 259.237,265.711 259.237,259.237 259.237,252.763 259.237,246.29 259.237,239.816 252.763,239.816 252.763,246.29 252.763,252.763 "
       id="polygon14" /><rect
       x="259.237"
       y="233.343"
       width="6.474"
       height="6.473"
       id="rect16" /><polygon
       points="285.131,252.763 285.131,246.29 285.131,239.816 285.131,233.343 285.131,226.869 285.131,220.395 278.657,220.395 278.657,226.869 278.657,233.343 278.657,239.816 278.657,246.29 278.657,252.763 278.657,259.237 278.657,265.711 278.657,272.184 285.131,272.184 285.131,265.711 285.131,259.237 "
       id="polygon18" /><rect
       x="272.18399"
       y="272.18399"
       width="6.474"
       height="6.474"
       id="rect20" /><polygon
       points="285.131,291.605 285.131,285.132 285.131,278.658 278.657,278.658 278.657,285.132 278.657,291.605 "
       id="polygon22" /><rect
       x="285.13101"
       y="272.18399"
       width="6.474"
       height="6.474"
       id="rect24" /></g></svg>